{
  "extensionsUsed": [
    "KHR_materials_unlit"
  ],
  "asset": {
    "generator": "UniGLTF-1.27",
    "version": "2.0"
  },
  "buffers": [
    {
      "uri": "taxi_data.bin",
      "byteLength": 115712
    }
  ],
  "bufferViews": [
    {
      "buffer": 0,
      "byteOffset": 0,
      "byteLength": 14952,
      "target": 34962
    },
    {
      "buffer": 0,
      "byteOffset": 14952,
      "byteLength": 14952,
      "target": 34962
    },
    {
      "buffer": 0,
      "byteOffset": 29904,
      "byteLength": 9968,
      "target": 34962
    },
    {
      "buffer": 0,
      "byteOffset": 39872,
      "byteLength": 7824,
      "target": 34963
    },
    {
      "buffer": 0,
      "byteOffset": 47696,
      "byteLength": 1704,
      "target": 34963
    },
    {
      "buffer": 0,
      "byteOffset": 49400,
      "byteLength": 48,
      "target": 34963
    },
    {
      "buffer": 0,
      "byteOffset": 49448,
      "byteLength": 216,
      "target": 34963
    },
    {
      "buffer": 0,
      "byteOffset": 49664,
      "byteLength": 144,
      "target": 34963
    },
    {
      "buffer": 0,
      "byteOffset": 49808,
      "byteLength": 48,
      "target": 34963
    },
    {
      "buffer": 0,
      "byteOffset": 49856,
      "byteLength": 4896,
      "target": 34962
    },
    {
      "buffer": 0,
      "byteOffset": 54752,
      "byteLength": 4896,
      "target": 34962
    },
    {
      "buffer": 0,
      "byteOffset": 59648,
      "byteLength": 3264,
      "target": 34962
    },
    {
      "buffer": 0,
      "byteOffset": 62912,
      "byteLength": 1992,
      "target": 34963
    },
    {
      "buffer": 0,
      "byteOffset": 64904,
      "byteLength": 1416,
      "target": 34963
    },
    {
      "buffer": 0,
      "byteOffset": 66320,
      "byteLength": 4896,
      "target": 34962
    },
    {
      "buffer": 0,
      "byteOffset": 71216,
      "byteLength": 4896,
      "target": 34962
    },
    {
      "buffer": 0,
      "byteOffset": 76112,
      "byteLength": 3264,
      "target": 34962
    },
    {
      "buffer": 0,
      "byteOffset": 79376,
      "byteLength": 1992,
      "target": 34963
    },
    {
      "buffer": 0,
      "byteOffset": 81368,
      "byteLength": 1416,
      "target": 34963
    },
    {
      "buffer": 0,
      "byteOffset": 82784,
      "byteLength": 4896,
      "target": 34962
    },
    {
      "buffer": 0,
      "byteOffset": 87680,
      "byteLength": 4896,
      "target": 34962
    },
    {
      "buffer": 0,
      "byteOffset": 92576,
      "byteLength": 3264,
      "target": 34962
    },
    {
      "buffer": 0,
      "byteOffset": 95840,
      "byteLength": 1992,
      "target": 34963
    },
    {
      "buffer": 0,
      "byteOffset": 97832,
      "byteLength": 1416,
      "target": 34963
    },
    {
      "buffer": 0,
      "byteOffset": 99248,
      "byteLength": 4896,
      "target": 34962
    },
    {
      "buffer": 0,
      "byteOffset": 104144,
      "byteLength": 4896,
      "target": 34962
    },
    {
      "buffer": 0,
      "byteOffset": 109040,
      "byteLength": 3264,
      "target": 34962
    },
    {
      "buffer": 0,
      "byteOffset": 112304,
      "byteLength": 1992,
      "target": 34963
    },
    {
      "buffer": 0,
      "byteOffset": 114296,
      "byteLength": 1416,
      "target": 34963
    }
  ],
  "accessors": [
    {
      "bufferView": 0,
      "byteOffset": 0,
      "type": "VEC3",
      "componentType": 5126,
      "count": 1246,
      "max": [
        0.75,
        1.3,
        1.44999993
      ],
      "min": [
        -0.75,
        0,
        -1.25
      ],
      "normalized": false
    },
    {
      "bufferView": 1,
      "byteOffset": 0,
      "type": "VEC3",
      "componentType": 5126,
      "count": 1246,
      "normalized": false
    },
    {
      "bufferView": 2,
      "byteOffset": 0,
      "type": "VEC2",
      "componentType": 5126,
      "count": 1246,
      "normalized": false
    },
    {
      "bufferView": 3,
      "byteOffset": 0,
      "type": "SCALAR",
      "componentType": 5125,
      "count": 1956,
      "normalized": false
    },
    {
      "bufferView": 4,
      "byteOffset": 0,
      "type": "SCALAR",
      "componentType": 5125,
      "count": 426,
      "normalized": false
    },
    {
      "bufferView": 5,
      "byteOffset": 0,
      "type": "SCALAR",
      "componentType": 5125,
      "count": 12,
      "normalized": false
    },
    {
      "bufferView": 6,
      "byteOffset": 0,
      "type": "SCALAR",
      "componentType": 5125,
      "count": 54,
      "normalized": false
    },
    {
      "bufferView": 7,
      "byteOffset": 0,
      "type": "SCALAR",
      "componentType": 5125,
      "count": 36,
      "normalized": false
    },
    {
      "bufferView": 8,
      "byteOffset": 0,
      "type": "SCALAR",
      "componentType": 5125,
      "count": 12,
      "normalized": false
    },
    {
      "bufferView": 9,
      "byteOffset": 0,
      "type": "VEC3",
      "componentType": 5126,
      "count": 408,
      "max": [
        0.3,
        0.3,
        0.3
      ],
      "min": [
        -4.51194632e-17,
        -0.3,
        -0.3
      ],
      "normalized": false
    },
    {
      "bufferView": 10,
      "byteOffset": 0,
      "type": "VEC3",
      "componentType": 5126,
      "count": 408,
      "normalized": false
    },
    {
      "bufferView": 11,
      "byteOffset": 0,
      "type": "VEC2",
      "componentType": 5126,
      "count": 408,
      "normalized": false
    },
    {
      "bufferView": 12,
      "byteOffset": 0,
      "type": "SCALAR",
      "componentType": 5125,
      "count": 498,
      "normalized": false
    },
    {
      "bufferView": 13,
      "byteOffset": 0,
      "type": "SCALAR",
      "componentType": 5125,
      "count": 354,
      "normalized": false
    },
    {
      "bufferView": 14,
      "byteOffset": 0,
      "type": "VEC3",
      "componentType": 5126,
      "count": 408,
      "max": [
        0.3,
        0.3,
        0.3
      ],
      "min": [
        -4.51194632e-17,
        -0.3,
        -0.3
      ],
      "normalized": false
    },
    {
      "bufferView": 15,
      "byteOffset": 0,
      "type": "VEC3",
      "componentType": 5126,
      "count": 408,
      "normalized": false
    },
    {
      "bufferView": 16,
      "byteOffset": 0,
      "type": "VEC2",
      "componentType": 5126,
      "count": 408,
      "normalized": false
    },
    {
      "bufferView": 17,
      "byteOffset": 0,
      "type": "SCALAR",
      "componentType": 5125,
      "count": 498,
      "normalized": false
    },
    {
      "bufferView": 18,
      "byteOffset": 0,
      "type": "SCALAR",
      "componentType": 5125,
      "count": 354,
      "normalized": false
    },
    {
      "bufferView": 19,
      "byteOffset": 0,
      "type": "VEC3",
      "componentType": 5126,
      "count": 408,
      "max": [
        0.3,
        0.3,
        0.3
      ],
      "min": [
        -4.51194632e-17,
        -0.3,
        -0.3
      ],
      "normalized": false
    },
    {
      "bufferView": 20,
      "byteOffset": 0,
      "type": "VEC3",
      "componentType": 5126,
      "count": 408,
      "normalized": false
    },
    {
      "bufferView": 21,
      "byteOffset": 0,
      "type": "VEC2",
      "componentType": 5126,
      "count": 408,
      "normalized": false
    },
    {
      "bufferView": 22,
      "byteOffset": 0,
      "type": "SCALAR",
      "componentType": 5125,
      "count": 498,
      "normalized": false
    },
    {
      "bufferView": 23,
      "byteOffset": 0,
      "type": "SCALAR",
      "componentType": 5125,
      "count": 354,
      "normalized": false
    },
    {
      "bufferView": 24,
      "byteOffset": 0,
      "type": "VEC3",
      "componentType": 5126,
      "count": 408,
      "max": [
        0.3,
        0.3,
        0.3
      ],
      "min": [
        -4.51194632e-17,
        -0.3,
        -0.3
      ],
      "normalized": false
    },
    {
      "bufferView": 25,
      "byteOffset": 0,
      "type": "VEC3",
      "componentType": 5126,
      "count": 408,
      "normalized": false
    },
    {
      "bufferView": 26,
      "byteOffset": 0,
      "type": "VEC2",
      "componentType": 5126,
      "count": 408,
      "normalized": false
    },
    {
      "bufferView": 27,
      "byteOffset": 0,
      "type": "SCALAR",
      "componentType": 5125,
      "count": 498,
      "normalized": false
    },
    {
      "bufferView": 28,
      "byteOffset": 0,
      "type": "SCALAR",
      "componentType": 5125,
      "count": 354,
      "normalized": false
    }
  ],
  "materials": [
    {
      "name": "plastic",
      "pbrMetallicRoughness": {
        "baseColorFactor": [
          0.3764706,
          0.3764706,
          0.3764706,
          1
        ],
        "metallicFactor": 1,
        "roughnessFactor": 1
      },
      "doubleSided": false,
      "alphaMode": "OPAQUE"
    },
    {
      "name": "paintYellow",
      "pbrMetallicRoughness": {
        "baseColorFactor": [
          0.9764706,
          0.768627465,
          0.274509817,
          1
        ],
        "metallicFactor": 1,
        "roughnessFactor": 1
      },
      "doubleSided": false,
      "alphaMode": "OPAQUE"
    },
    {
      "name": "lightFront",
      "pbrMetallicRoughness": {
        "baseColorFactor": [
          1,
          0.9762833,
          0.9292453,
          1
        ],
        "metallicFactor": 1,
        "roughnessFactor": 1
      },
      "doubleSided": false,
      "alphaMode": "OPAQUE"
    },
    {
      "name": "_defaultMat",
      "pbrMetallicRoughness": {
        "baseColorFactor": [
          1,
          1,
          1,
          1
        ],
        "metallicFactor": 1,
        "roughnessFactor": 1
      },
      "doubleSided": false,
      "alphaMode": "OPAQUE"
    },
    {
      "name": "window",
      "pbrMetallicRoughness": {
        "baseColorFactor": [
          0.9372549,
          0.9372549,
          0.9372549,
          1
        ],
        "metallicFactor": 1,
        "roughnessFactor": 1
      },
      "doubleSided": false,
      "alphaMode": "OPAQUE"
    },
    {
      "name": "lightBack",
      "pbrMetallicRoughness": {
        "baseColorFactor": [
          1,
          0.349019617,
          0.227450982,
          1
        ],
        "metallicFactor": 1,
        "roughnessFactor": 1
      },
      "doubleSided": false,
      "alphaMode": "OPAQUE"
    },
    {
      "name": "carTire",
      "pbrMetallicRoughness": {
        "baseColorFactor": [
          0.239215687,
          0.239215687,
          0.239215687,
          1
        ],
        "metallicFactor": 1,
        "roughnessFactor": 1
      },
      "doubleSided": false,
      "alphaMode": "OPAQUE"
    }
  ],
  "meshes": [
    {
      "name": "Mesh body",
      "primitives": [
        {
          "mode": 4,
          "indices": 3,
          "attributes": {
            "POSITION": 0,
            "NORMAL": 1,
            "TEXCOORD_0": 2
          },
          "material": 0
        },
        {
          "mode": 4,
          "indices": 4,
          "attributes": {
            "POSITION": 0,
            "NORMAL": 1,
            "TEXCOORD_0": 2
          },
          "material": 1
        },
        {
          "mode": 4,
          "indices": 5,
          "attributes": {
            "POSITION": 0,
            "NORMAL": 1,
            "TEXCOORD_0": 2
          },
          "material": 2
        },
        {
          "mode": 4,
          "indices": 6,
          "attributes": {
            "POSITION": 0,
            "NORMAL": 1,
            "TEXCOORD_0": 2
          },
          "material": 3
        },
        {
          "mode": 4,
          "indices": 7,
          "attributes": {
            "POSITION": 0,
            "NORMAL": 1,
            "TEXCOORD_0": 2
          },
          "material": 4
        },
        {
          "mode": 4,
          "indices": 8,
          "attributes": {
            "POSITION": 0,
            "NORMAL": 1,
            "TEXCOORD_0": 2
          },
          "material": 5
        }
      ]
    },
    {
      "name": "Mesh wheel_frontRight",
      "primitives": [
        {
          "mode": 4,
          "indices": 12,
          "attributes": {
            "POSITION": 9,
            "NORMAL": 10,
            "TEXCOORD_0": 11
          },
          "material": 6
        },
        {
          "mode": 4,
          "indices": 13,
          "attributes": {
            "POSITION": 9,
            "NORMAL": 10,
            "TEXCOORD_0": 11
          },
          "material": 0
        }
      ]
    },
    {
      "name": "Mesh wheel_frontRight",
      "primitives": [
        {
          "mode": 4,
          "indices": 17,
          "attributes": {
            "POSITION": 14,
            "NORMAL": 15,
            "TEXCOORD_0": 16
          },
          "material": 6
        },
        {
          "mode": 4,
          "indices": 18,
          "attributes": {
            "POSITION": 14,
            "NORMAL": 15,
            "TEXCOORD_0": 16
          },
          "material": 0
        }
      ]
    },
    {
      "name": "Mesh wheel_frontRight",
      "primitives": [
        {
          "mode": 4,
          "indices": 22,
          "attributes": {
            "POSITION": 19,
            "NORMAL": 20,
            "TEXCOORD_0": 21
          },
          "material": 6
        },
        {
          "mode": 4,
          "indices": 23,
          "attributes": {
            "POSITION": 19,
            "NORMAL": 20,
            "TEXCOORD_0": 21
          },
          "material": 0
        }
      ]
    },
    {
      "name": "Mesh wheel_frontRight",
      "primitives": [
        {
          "mode": 4,
          "indices": 27,
          "attributes": {
            "POSITION": 24,
            "NORMAL": 25,
            "TEXCOORD_0": 26
          },
          "material": 6
        },
        {
          "mode": 4,
          "indices": 28,
          "attributes": {
            "POSITION": 24,
            "NORMAL": 25,
            "TEXCOORD_0": 26
          },
          "material": 0
        }
      ]
    }
  ],
  "nodes": [
    {
      "children": [
        1
      ],
      "name": "tmpParent",
      "translation": [
        0,
        0,
        0
      ],
      "rotation": [
        0,
        0,
        0,
        1
      ],
      "scale": [
        1,
        1,
        1
      ]
    },
    {
      "children": [
        2,
        3,
        4,
        5,
        6
      ],
      "name": "taxi",
      "translation": [
        0,
        0,
        0
      ],
      "rotation": [
        0,
        0,
        0,
        1
      ],
      "scale": [
        1,
        1,
        1
      ]
    },
    {
      "name": "body",
      "translation": [
        0,
        0.2,
        -0.1
      ],
      "rotation": [
        0,
        0,
        0,
        1
      ],
      "scale": [
        1,
        1,
        1
      ],
      "mesh": 0
    },
    {
      "name": "wheel_backLeft",
      "translation": [
        -0.35,
        0.3,
        0.76
      ],
      "rotation": [
        0,
        -1,
        0,
        -4.371139e-8
      ],
      "scale": [
        1,
        1,
        1
      ],
      "mesh": 1
    },
    {
      "name": "wheel_backRight",
      "translation": [
        0.35,
        0.3,
        0.76
      ],
      "rotation": [
        0,
        0,
        0,
        1
      ],
      "scale": [
        1,
        1,
        1
      ],
      "mesh": 1
    },
    {
      "name": "wheel_frontLeft",
      "translation": [
        -0.35,
        0.3,
        -0.76
      ],
      "rotation": [
        0,
        -1,
        0,
        -4.371139e-8
      ],
      "scale": [
        1,
        1,
        1
      ],
      "mesh": 1
    },
    {
      "name": "wheel_frontRight",
      "translation": [
        0.35,
        0.3,
        -0.76
      ],
      "rotation": [
        0,
        0,
        0,
        1
      ],
      "scale": [
        1,
        1,
        1
      ],
      "mesh": 1
    }
  ],
  "scenes": [
    {
      "nodes": [
        1
      ]
    }
  ],
  "scene": 0
}